<svg xmlns="http://www.w3.org/2000/svg" xmlns:xlink="http://www.w3.org/1999/xlink" width="1000" zoomAndPan="magnify" viewBox="0 0 750 749.999995" height="1000" preserveAspectRatio="xMidYMid meet" version="1.0"><defs><g/><clipPath id="53477bb07a"><path d="M 9 75 L 749 75 L 749 681.75 L 9 681.75 Z M 9 75 " clip-rule="nonzero"/></clipPath></defs><g clip-path="url(#53477bb07a)"><path fill="#151721" d="M 376.679688 75 C 171.21875 75 9.78125 202.222656 9.78125 358.800781 C 9.78125 437.09375 68.484375 515.382812 132.082031 569.207031 C 127.1875 623.03125 44.027344 647.5 9.78125 681.75 C 83.160156 681.75 171.21875 657.285156 220.136719 618.140625 C 259.273438 627.925781 337.542969 642.605469 381.570312 642.605469 C 587.03125 642.605469 748.46875 515.382812 748.46875 358.800781 C 748.46875 202.222656 582.140625 75 376.679688 75 Z M 376.679688 75 " fill-opacity="1" fill-rule="nonzero"/></g><g fill="#ffffff" fill-opacity="1"><g transform="translate(81.960937, 455.524582)"><g><path d="M 123.445312 -100.894531 L 63.503906 -200.007812 C 60.832031 -204.457031 57.273438 -207.722656 51.039062 -207.722656 L 8.605469 -207.722656 C 3.859375 -207.722656 1.78125 -203.863281 3.859375 -200.007812 L 72.703125 -91.398438 L 72.703125 -7.714844 C 72.703125 -2.96875 74.484375 0 79.230469 0 L 116.917969 0 C 121.664062 0 123.445312 -2.96875 123.445312 -7.714844 L 123.445312 -91.101562 L 193.179688 -200.007812 C 194.664062 -203.863281 193.179688 -207.722656 188.433594 -207.722656 L 127.898438 -207.722656 C 121.664062 -207.722656 121.367188 -203.863281 124.632812 -200.007812 L 155.496094 -152.230469 Z M 123.445312 -100.894531 "/></g></g></g><g fill="#ffffff" fill-opacity="1"><g transform="translate(278.702532, 455.524582)"><g><path d="M 108.015625 -166.769531 C 52.820312 -166.769531 11.871094 -154.605469 11.871094 -82.496094 C 11.871094 -10.386719 52.820312 1.78125 108.015625 1.78125 C 154.902344 1.78125 204.160156 -10.386719 204.160156 -82.496094 C 204.160156 -154.605469 154.902344 -166.769531 108.015625 -166.769531 Z M 108.015625 -163.210938 C 130.566406 -163.210938 147.777344 -128.789062 147.777344 -82.496094 C 147.777344 -36.203125 130.566406 -1.78125 108.015625 -1.78125 C 85.460938 -1.78125 68.25 -36.203125 68.25 -82.496094 C 68.25 -128.789062 85.460938 -163.210938 108.015625 -163.210938 Z M 108.015625 -163.210938 "/></g></g></g><g fill="#ffffff" fill-opacity="1"><g transform="translate(494.732507, 455.524582)"><g><path d="M 96.738281 2.96875 C 143.328125 2.96875 156.976562 -19.882812 156.976562 -69.140625 L 156.976562 -156.085938 C 156.976562 -160.835938 155.199219 -163.804688 150.449219 -163.804688 L 117.214844 -163.804688 C 115.730469 -163.804688 115.136719 -162.914062 115.136719 -161.726562 L 115.136719 -127.304688 C 115.136719 -125.226562 115.136719 -123.742188 117.214844 -121.367188 L 153.417969 -73.890625 L 153.417969 -69.140625 C 153.417969 -18.695312 135.019531 -1.1875 101.785156 -1.1875 L 96.738281 -1.1875 C 80.714844 -1.1875 72.109375 -13.945312 72.109375 -69.140625 L 72.109375 -156.085938 C 72.109375 -160.835938 70.328125 -163.804688 65.582031 -163.804688 L 22.847656 -163.804688 C 18.101562 -163.804688 16.320312 -160.835938 16.320312 -156.085938 L 16.320312 -69.140625 C 16.320312 -19.882812 37.984375 2.96875 96.738281 2.96875 Z M 96.738281 2.96875 "/></g></g></g></svg>